<svg width="64" height="64" viewBox="0 0 64 64" fill="none" xmlns="http://www.w3.org/2000/svg">
<path d="M43 40H20.8875C19.2375 40 17.89 41.3438 17.89 43C17.89 44.6562 19.2375 46 20.8875 46H42.9C44.55 46 45.8975 44.6562 45.8975 43C45.8975 41.3438 44.65 40 43 40ZM21.8875 30C24.1125 30 25.89 28.2188 25.89 26C25.89 23.7812 24.1125 22 21.8875 22C19.6775 22 17.8888 23.7812 17.8888 26C17.8888 28.2188 19.7875 30 21.8875 30ZM42 22C39.775 22 37.9975 23.7812 37.9975 26C37.9975 28.2188 39.775 30 42 30C44.21 30 45.9987 28.2188 45.9987 26C45.9987 23.7812 44.2125 22 42 22ZM32 0C14.325 0 0 14.325 0 32C0 49.675 14.325 64 32 64C49.675 64 64 49.675 64 32C64 14.325 49.675 0 32 0ZM32 58C17.6625 58 6 46.3363 6 32C6 17.6637 17.6625 6 32 6C46.3375 6 58 17.6637 58 32C58 46.3363 46.3375 58 32 58Z" />
</svg>
