<svg width="64" height="64" viewBox="0 0 64 64" fill="none" xmlns="http://www.w3.org/2000/svg">
<path d="M42 30C44.21 30 45.9987 28.2188 45.9987 26C45.9987 23.7812 44.21 22 42 22C39.775 22 37.9975 23.7812 37.9975 26C37.9975 28.2188 39.775 30 42 30ZM21.8875 30C24.1125 30 25.89 28.2188 25.89 26C25.89 23.7812 24.1125 22 21.8875 22C19.6775 22 17.8888 23.7812 17.8888 26C17.8888 28.2188 19.7875 30 21.8875 30ZM42.5 39.075C39.9 42.2 36.0625 44 32 44C27.9375 44 24.0988 42.2187 21.495 39.0775C20.4354 37.7962 18.5437 37.64 17.2712 38.6869C16 39.75 15.8375 41.6375 16.8875 42.9125C20.6263 47.4125 26.1512 50.0037 32 50.0037C37.8488 50.0037 43.3675 47.4125 47.1125 42.9125C48.1872 41.6475 48.0056 39.7562 46.7341 38.6937C45.4625 37.6375 43.5625 37.8 42.5 39.075ZM32 0C14.325 0 0 14.325 0 32C0 49.675 14.325 64 32 64C49.675 64 64 49.675 64 32C64 14.325 49.675 0 32 0ZM32 58C17.6625 58 6 46.3363 6 32C6 17.6637 17.6625 6 32 6C46.3375 6 58 17.6637 58 32C58 46.3363 46.3375 58 32 58Z" />
</svg>
