<svg width="32" height="32" viewBox="0 0 32 32" fill="none" xmlns="http://www.w3.org/2000/svg">
<path fill-rule="evenodd" clip-rule="evenodd" d="M0 16C0 12.8355 0.938382 9.74207 2.69648 7.11088C4.45459 4.47969 6.95347 2.42893 9.87708 1.21793C12.8007 0.00692507 16.0177 -0.309918 19.1214 0.307445C22.2251 0.924809 25.0761 2.44866 27.3137 4.6863C29.5514 6.92394 31.0752 9.77486 31.6926 12.8786C32.3099 15.9823 31.9931 19.1993 30.7821 22.1229C29.5711 25.0466 27.5203 27.5454 24.8891 29.3035C22.2579 31.0616 19.1645 32 16 32C11.7565 32 7.68685 30.3143 4.68626 27.3137C1.68568 24.3131 0 20.2435 0 16ZM16 25.6C15.4342 25.6 14.8916 25.3752 14.4915 24.9752C14.0915 24.5751 13.8667 24.0325 13.8667 23.4667V14.9333C13.8667 14.3675 14.0915 13.8249 14.4915 13.4248C14.8916 13.0248 15.4342 12.8 16 12.8C16.5658 12.8 17.1084 13.0248 17.5085 13.4248C17.9085 13.8249 18.1333 14.3675 18.1333 14.9333V23.4667C18.1333 24.0325 17.9085 24.5751 17.5085 24.9752C17.1084 25.3752 16.5658 25.6 16 25.6ZM16 6.40001C16.4219 6.40001 16.8344 6.52513 17.1852 6.75954C17.536 6.99396 17.8095 7.32713 17.971 7.71695C18.1324 8.10677 18.1746 8.53571 18.0923 8.94953C18.01 9.36336 17.8068 9.74348 17.5085 10.0418C17.2101 10.3402 16.83 10.5434 16.4162 10.6257C16.0024 10.708 15.5734 10.6658 15.1836 10.5043C14.7938 10.3428 14.4606 10.0694 14.2262 9.71856C13.9918 9.36774 13.8667 8.95527 13.8667 8.53334C13.8667 7.96754 14.0915 7.42492 14.4915 7.02484C14.8916 6.62477 15.4342 6.40001 16 6.40001Z" />
</svg>
