<svg viewBox="0 0 24 24" fill="none" xmlns="http://www.w3.org/2000/svg">
<g clip-path="url(#clip0_878_5)">
<path d="M12 24C13.8855 24 15.663 23.553 17.25 22.7775C13.257 20.829 10.5 16.7415 10.5 12C10.5 7.2585 13.257 3.171 17.25 1.2225C15.663 0.447 13.8855 0 12 0C5.373 0 0 5.373 0 12C0 18.627 5.373 24 12 24Z" />
<path d="M21 4.5C21 6.1575 19.6575 7.5 18 7.5C19.6575 7.5 21 8.8425 21 10.5C21 8.8425 22.3425 7.5 24 7.5C22.3425 7.5 21 6.1575 21 4.5Z" />
<path d="M15 9C15 10.6575 13.6575 12 12 12C13.6575 12 15 13.3425 15 15C15 13.3425 16.3425 12 18 12C16.3425 12 15 10.6575 15 9Z" />
<path d="M19.5 19.5C19.5 17.8425 20.8425 16.5 22.5 16.5C20.8425 16.5 19.5 15.1575 19.5 13.5C19.5 15.1575 18.1575 16.5 16.5 16.5C18.1575 16.5 19.5 17.8425 19.5 19.5Z" />
</g>
<defs>
<clipPath id="clip0_878_5">
<rect width="24" height="24" fill="white"/>
</clipPath>
</defs>
</svg>
