<svg width="32" height="32" viewBox="0 0 32 32" fill="none" xmlns="http://www.w3.org/2000/svg">
<path d="M29.7143 16C28.3211 16 27.6606 16.9817 27.4286 18.0183C26.5931 21.7486 23.048 27.4286 16 27.4286C9.688 27.4286 4.57143 22.3109 4.57143 16C4.57143 9.68914 9.688 4.57143 16 4.57143C18.56 4.57143 20.9086 5.432 22.8114 6.85714H20.5714C19.3097 6.85714 18.2857 7.88114 18.2857 9.14286C18.2857 10.4046 19.3097 11.4286 20.5714 11.4286H27.4286C28.6903 11.4286 29.7143 10.4046 29.7143 9.14286V2.28571C29.7143 1.024 28.6903 0 27.4286 0C26.1669 0 25.1429 1.024 25.1429 2.28571V2.87771C22.552 1.06514 19.4023 0 16 0C7.16343 0 0 7.16343 0 16C0 24.8366 7.16343 32 16 32C27.4046 32 32 21.1429 32 18.4286C32 16.768 30.7863 16 29.7143 16Z" />
</svg>
