<svg width="36" height="36" viewBox="0 0 36 36" fill="none" xmlns="http://www.w3.org/2000/svg">
<path d="M35.8661 14.1266C35.5544 13.2278 34.7546 12.5696 33.7916 12.4267L24.4248 11.034L20.3534 2.58075C19.9248 1.69312 19.0079 1.125 17.9999 1.125C16.9919 1.125 16.0751 1.69312 15.6464 2.58075L11.5751 11.034L2.2072 12.4267C1.24532 12.5696 0.445447 13.2278 0.134947 14.1266C-0.174428 15.0278 0.0595718 16.02 0.739072 16.6973L7.60382 23.5508L6.01195 33.0581C5.84995 34.0155 6.26507 34.9762 7.07845 35.5365C7.52507 35.8436 8.05045 36 8.57582 36C9.00782 36 9.44095 35.8942 9.83357 35.6839L17.9999 31.2874L26.1674 35.6839C26.5601 35.8942 26.9932 36 27.4241 36C27.9494 36 28.4748 35.8436 28.9226 35.5365C29.7359 34.9762 30.1488 34.0155 29.9879 33.0581L28.3949 23.5508L35.2619 16.6973C35.9403 16.0189 36.1732 15.0266 35.8661 14.1266ZM26.5364 21.7834C25.9604 22.3571 25.6994 23.166 25.8311 23.9591L27.4241 33.4665L19.2566 29.0722C18.8651 28.8607 18.4331 28.7561 17.9988 28.7561C17.5668 28.7561 17.1337 28.8619 16.7422 29.0722L8.5747 33.4665L10.1677 23.9591C10.3004 23.166 10.0394 22.3571 9.46345 21.7834L2.5987 14.9299L11.9654 13.5349C12.8216 13.4078 13.5584 12.8722 13.9263 12.1084L17.9999 3.65737L22.0724 12.1095C22.4414 12.8734 23.1772 13.4077 24.0322 13.536L33.4012 14.931L26.5364 21.7834Z" fill="#ADC9EB"/>
</svg>
