<svg viewBox="0 0 32 32" fill="none" xmlns="http://www.w3.org/2000/svg">
<path d="M26.7943 15.9911C26.7943 14.5974 26.5101 13.2663 25.9416 11.9978C25.3732 10.7292 24.6048 9.63335 23.6366 8.71022C22.6683 7.78708 21.519 7.05453 20.1884 6.51256C18.8579 5.97059 17.4617 5.69961 16 5.69961C14.5383 5.69961 13.1421 5.97059 11.8116 6.51256C10.4811 7.05453 9.33166 7.78708 8.36342 8.71022C7.39519 9.63335 6.62684 10.7292 6.0584 11.9978C5.48995 13.2663 5.20572 14.5974 5.20572 15.9911C5.20572 17.3847 5.48995 18.7158 6.0584 19.9844C6.62684 21.2529 7.39519 22.3488 8.36342 23.2719C9.33166 24.195 10.4811 24.9276 11.8116 25.4696C13.1421 26.0115 14.5383 26.2825 16 26.2825C17.4617 26.2825 18.8579 26.0115 20.1884 25.4696C21.519 24.9276 22.6683 24.195 23.6366 23.2719C24.6048 22.3488 25.3732 21.2529 25.9416 19.9844C26.5101 18.7158 26.7943 17.3847 26.7943 15.9911ZM31.9665 20.9403C31.9166 21.1189 31.7916 21.238 31.5917 21.2976L26.1196 23.0128V28.4802C26.1196 28.6708 26.0384 28.8256 25.876 28.9447C25.6886 29.0638 25.5075 29.0877 25.3326 29.0162L19.8605 27.3367L16.4872 31.7677C16.3623 31.9226 16.1999 32 16 32C15.8001 32 15.6377 31.9226 15.5128 31.7677L12.1395 27.3367L6.66745 29.0162C6.49254 29.0877 6.31139 29.0638 6.12399 28.9447C5.96157 28.8256 5.88036 28.6708 5.88036 28.4802V23.0128L0.408266 21.2976C0.208372 21.238 0.0834379 21.1189 0.0334644 20.9403C-0.0290025 20.7378 -0.00401573 20.565 0.108425 20.4221L3.48164 15.9911L0.108425 11.56C-0.00401573 11.4052 -0.0290025 11.2325 0.0334644 11.0419C0.0834379 10.8632 0.208372 10.7441 0.408266 10.6845L5.88036 8.96929V3.50195C5.88036 3.31137 5.96157 3.15652 6.12399 3.03741C6.31139 2.9183 6.49254 2.89447 6.66745 2.96594L12.1395 4.64545L15.5128 0.214405C15.6252 0.0714685 15.7876 0 16 0C16.2124 0 16.3748 0.0714685 16.4872 0.214405L19.8605 4.64545L25.3326 2.96594C25.5075 2.89447 25.6886 2.9183 25.876 3.03741C26.0384 3.15652 26.1196 3.31137 26.1196 3.50195V8.96929L31.5917 10.6845C31.7916 10.7441 31.9166 10.8632 31.9665 11.0419C32.029 11.2325 32.004 11.4052 31.8916 11.56L28.5184 15.9911L31.8916 20.4221C32.004 20.565 32.029 20.7378 31.9665 20.9403Z"/>
<ellipse cx="16.0001" cy="15.9911" rx="8.39557" ry="8.00447"/>
</svg>
