<svg width="48" height="32" viewBox="0 0 48 32" fill="none" xmlns="http://www.w3.org/2000/svg">
<path fill-rule="evenodd" clip-rule="evenodd" d="M38.71 12.07C37.35 5.19 31.28 0 24 0C18.22 0 13.21 3.28 10.7 8.07C4.69 8.72 0 13.81 0 20C0 26.63 5.37 32 12 32H38C43.52 32 48 27.52 48 22C48 16.72 43.89 12.44 38.71 12.07ZM31.6297 8.2918C31.6297 8.2918 30.5311 9.36385 29.77 10.1167C25.8839 7.27778 20.4076 7.59948 16.8979 11.1091C14.85 13.1571 13.894 15.8741 14.0093 18.5571H17.3257C17.2088 16.7231 17.8381 14.8534 19.2393 13.4514C21.4473 11.2435 24.8234 10.9284 27.3746 12.488C26.5107 13.3436 25.5133 14.3435 25.5133 14.3435C24.816 15.1801 25.5995 15.6635 25.9975 15.651L30.6604 15.6502C30.9067 15.6502 31.1073 15.651 31.1073 15.651H31.5575H32.4629C32.71 15.651 32.9107 15.4496 32.9107 15.2025V8.79258C32.9389 8.2064 32.2955 7.63762 31.6297 8.2918ZM17.8282 25.8832C17.0679 26.6361 15.9685 27.7081 15.9685 27.7081C15.3036 28.3623 14.6602 27.7935 14.6875 27.2082V20.7974C14.6883 20.5495 14.889 20.3489 15.1361 20.3489H16.0398H16.49C16.49 20.3489 16.6915 20.3505 16.9377 20.3505L21.6007 20.3489C21.9987 20.3364 22.7822 20.819 22.0849 21.6564C22.0849 21.6564 21.0875 22.6563 20.2235 23.512C22.7747 25.0724 26.1509 24.7565 28.3588 22.5493C29.7609 21.1465 30.3902 19.276 30.2725 17.4428H33.5898C33.7042 20.1258 32.749 22.842 30.7011 24.8908C27.1906 28.4004 21.7151 28.7221 17.8282 25.8832Z" />
</svg>
